<?xml version="1.0" encoding="UTF-8"?><svg id="Layer_2" xmlns="http://www.w3.org/2000/svg" viewBox="0 0 703.91 459.84"><defs><style>.cls-1{fill:none;stroke:#000;stroke-miterlimit:10;}</style></defs><g id="Layer_2-2"><path class="cls-1" d="m.35,300.47C142.46,164.57,299.85,18.13,506.99,2.22c33.86-2.6,71.09-3.41,104.01,6.19,50.56,14.75,95.07,61.03,92.29,113.62-2.48,46.87-39.66,84.36-78.47,110.76-40.57,27.6-85.79,48.17-133.07,61.2-23.63,6.52-47.77,11.16-72.12,13.91-12.49,1.41-25.04,2.32-37.6,2.73-10.04.33-24.6,2.68-34.28-.49-5.19-1.71-8.05-5.46-3.18-10.1,7.27-6.91,17.17-10.25,26.84-12.92,45.16-12.48,92.64-15.79,139.24-11.74,34.94,3.04,72.34,6.56,104.48,21.78,12.29,5.82,27.59,15.67,30.62,29.64,3.32,15.29-7.47,28.94-20.57,35.4-32.65,16.09-135.83,48.74-145.06,39.51-6.97-6.97,20.46-11.46,24.83-11.85,15.04-1.34,31.6,4.99,43.98,13.23,14.89,9.91,19.99,25.3,9.14,40.61-7.57,10.67-21.55,14.65-z.34.6,15.65"/></g></svg>


<?xml version="1.0" encoding="UTF-8"?>
<svg id="Layer_2" xmlns="http://www.w3.org/2000/svg" viewBox="0 0 703.91 459.84">
	<defs>
		<style>.cls-1{fill:none;stroke:#000;stroke-miterlimit:10;
		}
		  #path {
    stroke-dasharray: 1000;
    stroke-dashoffset: 1000;
    animation: draw 2s ease-in-out infinite;
 	 }
  
	  @keyframes draw {
	    to {
	      stroke-dashoffset: 0;
	    }
	}
		</style>
	</defs><g id="Layer_2-2">
		<path  class="cls-1" d="m.35,300.47C142.46,164.57,299.85,18.13,506.99,2.22c33.86-2.6,71.09-3.41,104.01,6.19,50.56,14.75,95.07,61.03,92.29,113.62-2.48,46.87-39.66,84.36-78.47,110.76-40.57,27.6-85.79,48.17-133.07,61.2-23.63,6.52-47.77,11.16-72.12,13.91-12.49,1.41-25.04,2.32-37.6,2.73-10.04.33-24.6,2.68-34.28-.49-5.19-1.71-8.05-5.46-3.18-10.1,7.27-6.91,17.17-10.25,26.84-12.92,45.16-12.48,92.64-15.79,139.24-11.74,34.94,3.04,72.34,6.56,104.48,21.78,12.29,5.82,27.59,15.67,30.62,29.64,3.32,15.29-7.47,28.94-20.57,35.4-32.65,16.09-135.83,48.74-145.06,39.51-6.97-6.97,20.46-11.46,24.83-11.85,15.04-1.34,31.6,4.99,43.98,13.23,14.89,9.91,19.99,25.3,9.14,40.61-7.57,10.67-21.55,14.65-34.6,15.65"/>
	</g>
</svg>